<svg xmlns="http://www.w3.org/2000/svg" xmlns:xlink="http://www.w3.org/1999/xlink" width="431" height="409.706" viewBox="0 0 431 409.706">
  <defs>
    <linearGradient id="linear-gradient" x1="0.5" x2="0.5" y2="1" gradientUnits="objectBoundingBox">
      <stop offset="0" stop-color="#fff"/>
      <stop offset="1" stop-color="#fee"/>
    </linearGradient>
    <filter id="Ellipse_664" x="84" y="78.999" width="268" height="267" filterUnits="userSpaceOnUse">
      <feOffset dy="-5" input="SourceAlpha"/>
      <feGaussianBlur stdDeviation="5" result="blur"/>
      <feFlood flood-color="#192b65" flood-opacity="0.102"/>
      <feComposite operator="in" in2="blur"/>
      <feComposite in="SourceGraphic"/>
    </filter>
    <filter id="Ellipse_663" x="126" y="119.999" width="185" height="184" filterUnits="userSpaceOnUse">
      <feOffset dy="-5" input="SourceAlpha"/>
      <feGaussianBlur stdDeviation="5" result="blur-2"/>
      <feFlood flood-color="#192b65" flood-opacity="0.161"/>
      <feComposite operator="in" in2="blur-2"/>
      <feComposite in="SourceGraphic"/>
    </filter>
    <linearGradient id="linear-gradient-3" x1="0.6" y1="0.31" x2="0.186" y2="0.8" gradientUnits="objectBoundingBox">
      <stop offset="0" stop-color="#ad1c28"/>
      <stop offset="1" stop-color="#d92332"/>
    </linearGradient>
    <linearGradient id="linear-gradient-4" x1="0.14" y1="0" x2="0.785" y2="0.829" xlink:href="#linear-gradient-3"/>
    <linearGradient id="linear-gradient-5" x1="0.088" y1="0.182" x2="0.801" y2="0.733" xlink:href="#linear-gradient-3"/>
    <linearGradient id="linear-gradient-7" x1="0.86" y1="1" x2="0.215" y2="0.171" xlink:href="#linear-gradient-3"/>
    <filter id="Ellipse_653" x="189" y="0" width="242" height="244" filterUnits="userSpaceOnUse">
      <feOffset input="SourceAlpha"/>
      <feGaussianBlur stdDeviation="30" result="blur-3"/>
      <feFlood flood-color="#192b65" flood-opacity="0.239"/>
      <feComposite operator="in" in2="blur-3"/>
      <feComposite in="SourceGraphic"/>
    </filter>
    <filter id="_" x="287" y="101.999" width="46" height="47" filterUnits="userSpaceOnUse">
      <feOffset dy="3" input="SourceAlpha"/>
      <feGaussianBlur stdDeviation="3" result="blur-4"/>
      <feFlood flood-opacity="0.161"/>
      <feComposite operator="in" in2="blur-4"/>
      <feComposite in="SourceGraphic"/>
    </filter>
    <filter id="Ellipse_653-2" x="0" y="32" width="229" height="229" filterUnits="userSpaceOnUse">
      <feOffset input="SourceAlpha"/>
      <feGaussianBlur stdDeviation="30" result="blur-5"/>
      <feFlood flood-color="#192b65" flood-opacity="0.239"/>
      <feComposite operator="in" in2="blur-5"/>
      <feComposite in="SourceGraphic"/>
    </filter>
    <filter id="_2" x="97" y="132.999" width="36" height="34" filterUnits="userSpaceOnUse">
      <feOffset dy="3" input="SourceAlpha"/>
      <feGaussianBlur stdDeviation="3" result="blur-6"/>
      <feFlood flood-opacity="0.161"/>
      <feComposite operator="in" in2="blur-6"/>
      <feComposite in="SourceGraphic"/>
    </filter>
    <filter id="Path_6943" x="0" y="178" width="231.706" height="231.706" filterUnits="userSpaceOnUse">
      <feOffset input="SourceAlpha"/>
      <feGaussianBlur stdDeviation="30" result="blur-7"/>
      <feFlood flood-color="#192b65" flood-opacity="0.239"/>
      <feComposite operator="in" in2="blur-7"/>
      <feComposite in="SourceGraphic"/>
    </filter>
    <filter id="_3" x="96" y="277" width="38" height="39" filterUnits="userSpaceOnUse">
      <feOffset dy="3" input="SourceAlpha"/>
      <feGaussianBlur stdDeviation="3" result="blur-8"/>
      <feFlood flood-opacity="0.161"/>
      <feComposite operator="in" in2="blur-8"/>
      <feComposite in="SourceGraphic"/>
    </filter>
    <filter id="Ellipse_653-3" x="211" y="177.999" width="216" height="216" filterUnits="userSpaceOnUse">
      <feOffset input="SourceAlpha"/>
      <feGaussianBlur stdDeviation="30" result="blur-9"/>
      <feFlood flood-color="#192b65" flood-opacity="0.239"/>
      <feComposite operator="in" in2="blur-9"/>
      <feComposite in="SourceGraphic"/>
    </filter>
    <filter id="_4" x="303" y="273" width="32" height="32" filterUnits="userSpaceOnUse">
      <feOffset dy="3" input="SourceAlpha"/>
      <feGaussianBlur stdDeviation="3" result="blur-10"/>
      <feFlood flood-opacity="0.161"/>
      <feComposite operator="in" in2="blur-10"/>
      <feComposite in="SourceGraphic"/>
    </filter>
  </defs>
  <g id="Group_12507" data-name="Group 12507" transform="translate(-11.683 34.719)">
    <g id="Group_12497" data-name="Group 12497" transform="translate(110.182 62.807)">
      <g transform="matrix(1, 0, 0, 1, -98.5, -97.53)" filter="url(#Ellipse_664)">
        <ellipse id="Ellipse_664-2" data-name="Ellipse 664" cx="119" cy="118.5" rx="119" ry="118.5" transform="translate(99 99)" opacity="0.3" fill="url(#linear-gradient)"/>
      </g>
      <g transform="matrix(1, 0, 0, 1, -98.5, -97.53)" filter="url(#Ellipse_663)">
        <ellipse id="Ellipse_663-2" data-name="Ellipse 663" cx="77.5" cy="77" rx="77.5" ry="77" transform="translate(141 140)" opacity="0.4" fill="url(#linear-gradient)"/>
      </g>
      <g id="Group_12458" data-name="Group 12458" transform="translate(75.475 75.868)">
        <g id="Group_12453" data-name="Group 12453" transform="translate(0 11.803)">
          <path id="Rectangle_1559" data-name="Rectangle 1559" d="M18.776,0h43.1a0,0,0,0,1,0,0V8.971a9.805,9.805,0,0,1-9.805,9.805H0a0,0,0,0,1,0,0v0A18.776,18.776,0,0,1,18.776,0Z" transform="translate(0 66.022) rotate(-60)" fill="url(#linear-gradient-3)"/>
          <path id="Path_5804" data-name="Path 5804" d="M1054.981,310.04l.2-2.491a19.436,19.436,0,0,0-9.665-18.367h0l-5.407-3.122a18.776,18.776,0,0,1-6.872-25.648h0l29.309,16.921a9.805,9.805,0,0,1,3.589,13.394Z" transform="translate(-1023.839 -260.412)" fill="url(#linear-gradient-4)"/>
        </g>
        <circle id="Ellipse_622" data-name="Ellipse 622" cx="9.304" cy="9.304" r="9.304" transform="translate(37.64 5.789)" fill="url(#linear-gradient-5)"/>
        <g id="Group_14147" data-name="Group 14147" transform="translate(42.178)">
          <path id="Rectangle_1559-2" data-name="Rectangle 1559" d="M18.776,0h43.1a0,0,0,0,1,0,0V8.971a9.805,9.805,0,0,1-9.805,9.805H0a0,0,0,0,1,0,0v0A18.776,18.776,0,0,1,18.776,0Z" transform="translate(47.196 9.388) rotate(120)" fill="url(#linear-gradient-3)"/>
          <path id="Path_5804-2" data-name="Path 5804" d="M1043.18,260.412l-.2,2.491a19.436,19.436,0,0,0,9.665,18.367h0l5.407,3.122a18.776,18.776,0,0,1,6.872,25.648h0l-29.309-16.921a9.805,9.805,0,0,1-3.589-13.394Z" transform="translate(-1027.126 -234.63)" fill="url(#linear-gradient-7)"/>
        </g>
      </g>
    </g>
    <g id="Group_12499" data-name="Group 12499" transform="translate(87.183 51.563)">
      <g id="Group_12481" data-name="Group 12481" transform="translate(203.146 4)">
        <g transform="matrix(1, 0, 0, 1, -278.65, -90.28)" filter="url(#Ellipse_653)">
          <ellipse id="Ellipse_653-4" data-name="Ellipse 653" cx="31" cy="32" rx="31" ry="32" transform="translate(279 90)" opacity="0.74" fill="url(#linear-gradient)"/>
        </g>
        <g transform="matrix(1, 0, 0, 1, -278.65, -90.28)" filter="url(#_)">
          <text id="_5" data-name="" transform="translate(310 133)" fill="#d92332" font-size="28" font-family="FontAwesome5Pro-Solid, 'Font Awesome \35  Pro'" opacity="0.7"><tspan x="-14" y="0"></tspan></text>
        </g>
      </g>
      <g id="Group_12486" data-name="Group 12486" transform="translate(14.51 35.932)">
        <g transform="matrix(1, 0, 0, 1, -90.01, -122.21)" filter="url(#Ellipse_653-2)">
          <circle id="Ellipse_653-5" data-name="Ellipse 653" cx="24.5" cy="24.5" r="24.5" transform="translate(90 122)" opacity="0.6" fill="url(#linear-gradient)"/>
        </g>
        <g transform="matrix(1, 0, 0, 1, -90.01, -122.21)" filter="url(#_2)">
          <text id="_6" data-name="" transform="translate(115 153)" fill="#192b65" font-size="16" font-family="FontAwesome5Pro-Solid, 'Font Awesome \35  Pro'" opacity="0.7"><tspan x="-9" y="0"></tspan></text>
        </g>
      </g>
      <g id="Group_12484" data-name="Group 12484" transform="translate(14 181.397)">
        <g transform="matrix(1, 0, 0, 1, -89.5, -267.68)" filter="url(#Path_6943)">
          <path id="Path_6943-2" data-name="Path 6943" d="M25.853,0A25.853,25.853,0,1,1,0,25.853,25.853,25.853,0,0,1,25.853,0Z" transform="translate(90 268)" opacity="0.6" fill="url(#linear-gradient)"/>
        </g>
        <g transform="matrix(1, 0, 0, 1, -89.5, -267.68)" filter="url(#_3)">
          <text id="_7" data-name="" transform="translate(115 301)" fill="#d92332" font-size="20" font-family="FontAwesome5Pro-Solid, 'Font Awesome \35  Pro'" opacity="0.7"><tspan x="-10" y="0"></tspan></text>
        </g>
      </g>
      <g id="Group_12483" data-name="Group 12483" transform="translate(225.478 182.126)">
        <g transform="matrix(1, 0, 0, 1, -300.98, -268.41)" filter="url(#Ellipse_653-3)">
          <circle id="Ellipse_653-6" data-name="Ellipse 653" cx="18" cy="18" r="18" transform="translate(301 268)" opacity="0.6" fill="url(#linear-gradient)"/>
        </g>
        <g transform="matrix(1, 0, 0, 1, -300.98, -268.41)" filter="url(#_4)">
          <text id="_8" data-name="" transform="translate(319 291)" fill="#192b65" font-size="14" font-family="FontAwesome5Pro-Solid, 'Font Awesome \35  Pro'" opacity="0.7"><tspan x="-6" y="0"></tspan></text>
        </g>
      </g>
    </g>
  </g>
</svg>
